<svg xmlns="http://www.w3.org/2000/svg" viewBox="0 0 103.75 28"><defs><style>.cls-1,.cls-3{isolation:isolate;}.cls-2{fill:#3b5998;}.cls-3{font-size:10.68px;font-family:Verdana-Bold, Verdana;font-weight:700;}.cls-3,.cls-49{fill:#fff;}.cls-4{letter-spacing:0.02em;}.cls-5{opacity:0.5;mix-blend-mode:multiply;}.cls-50,.cls-6,.cls-7{opacity:0;}.cls-7{fill:#f2f2f2;}.cls-8{fill:#efefef;opacity:0.02;}.cls-9{fill:#ebebeb;opacity:0.05;}.cls-10{fill:#e8e8e8;opacity:0.07;}.cls-11{fill:#e4e4e4;opacity:0.1;}.cls-12{fill:#e1e1e1;opacity:0.12;}.cls-13{fill:#dedede;opacity:0.15;}.cls-14{fill:#dadada;opacity:0.17;}.cls-15{fill:#d7d7d7;opacity:0.2;}.cls-16{fill:#d3d3d3;opacity:0.22;}.cls-17{fill:#d0d0d0;opacity:0.24;}.cls-18{fill:#ccc;opacity:0.27;}.cls-19{fill:#c9c9c9;opacity:0.29;}.cls-20{fill:#c6c6c6;opacity:0.32;}.cls-21{fill:#c2c2c2;opacity:0.34;}.cls-22{fill:#bfbfbf;opacity:0.37;}.cls-23{fill:#bbb;opacity:0.39;}.cls-24{fill:#b8b8b8;opacity:0.41;}.cls-25{fill:#b5b5b5;opacity:0.44;}.cls-26{fill:#b1b1b1;opacity:0.46;}.cls-27{fill:#aeaeae;opacity:0.49;}.cls-28{fill:#aaa;opacity:0.51;}.cls-29{fill:#a7a7a7;opacity:0.54;}.cls-30{fill:#a3a3a3;opacity:0.56;}.cls-31{fill:#a0a0a0;opacity:0.59;}.cls-32{fill:#9d9d9d;opacity:0.61;}.cls-33{fill:#999;opacity:0.63;}.cls-34{fill:#969696;opacity:0.66;}.cls-35{fill:#929292;opacity:0.68;}.cls-36{fill:#8f8f8f;opacity:0.71;}.cls-37{fill:#8c8c8c;opacity:0.73;}.cls-38{fill:#888;opacity:0.76;}.cls-39{fill:#858585;opacity:0.78;}.cls-40{fill:#818181;opacity:0.8;}.cls-41{fill:#7e7e7e;opacity:0.83;}.cls-42{fill:#7a7a7a;opacity:0.85;}.cls-43{fill:#777;opacity:0.88;}.cls-44{fill:#747474;opacity:0.9;}.cls-45{fill:#707070;opacity:0.93;}.cls-46{fill:#6d6d6d;opacity:0.95;}.cls-47{fill:#696969;opacity:0.98;}.cls-48,.cls-50{fill:#666;}.cls-51{fill:#656565;opacity:0.03;}.cls-52,.cls-53{fill:#646464;}.cls-52{opacity:0.06;}.cls-53{opacity:0.1;}.cls-54{fill:#636363;opacity:0.13;}.cls-55{fill:#626262;opacity:0.16;}.cls-56{fill:#616161;opacity:0.19;}.cls-57,.cls-58{fill:#606060;}.cls-57{opacity:0.23;}.cls-58{opacity:0.26;}.cls-59{fill:#5f5f5f;opacity:0.29;}.cls-60{fill:#5e5e5e;opacity:0.32;}.cls-61{fill:#5d5d5d;opacity:0.35;}.cls-62,.cls-63{fill:#5c5c5c;}.cls-62{opacity:0.39;}.cls-63{opacity:0.42;}.cls-64{fill:#5b5b5b;opacity:0.45;}.cls-65{fill:#5a5a5a;opacity:0.48;}.cls-66{fill:#595959;opacity:0.52;}.cls-67{fill:#585858;opacity:0.55;}.cls-68,.cls-69{fill:#575757;}.cls-68{opacity:0.58;}.cls-69{opacity:0.61;}.cls-70{fill:#565656;opacity:0.65;}.cls-71{fill:#555;opacity:0.68;}.cls-72{fill:#545454;opacity:0.71;}.cls-73,.cls-74{fill:#535353;}.cls-73{opacity:0.74;}.cls-74{opacity:0.77;}.cls-75{fill:#525252;opacity:0.81;}.cls-76{fill:#515151;opacity:0.84;}.cls-77{fill:#505050;opacity:0.87;}.cls-78,.cls-79{fill:#4f4f4f;}.cls-78{opacity:0.9;}.cls-79{opacity:0.94;}.cls-80{fill:#4e4e4e;opacity:0.97;}.cls-81{fill:#4d4d4d;}.cls-82{fill:#fcfcfc;}</style></defs><g class="cls-1"><g id="Layer_1" data-name="Layer 1"><rect class="cls-2" width="103.75" height="28"/><text class="cls-3" transform="translate(28.62 18.25)"><tspan class="cls-4">FACEBOO</tspan><tspan x="57.98" y="0">K</tspan></text><g class="cls-5"><g class="cls-6"><path class="cls-7" d="M11.53,9.49a.34.34,0,0,0-.34.34v12a.34.34,0,0,0,.34.34h12a.34.34,0,0,0,.34-.34v-12a.34.34,0,0,0-.34-.34Zm12,13.31h-12a1,1,0,0,1-1-1v-12a1,1,0,0,1,1-1h12a1,1,0,0,1,1,1v12A1,1,0,0,1,23.48,22.8Z"/></g><path class="cls-8" d="M11.49,9.45a.34.34,0,0,0-.34.34v12a.34.34,0,0,0,.34.34h12a.34.34,0,0,0,.34-.34V9.79a.34.34,0,0,0-.34-.34Zm12,13.31h-12a1,1,0,0,1-1-1V9.79a1,1,0,0,1,1-1h12a1,1,0,0,1,1,1v12A1,1,0,0,1,23.44,22.76Z"/><path class="cls-9" d="M11.45,9.41a.35.35,0,0,0-.34.34v12a.34.34,0,0,0,.34.34h12a.34.34,0,0,0,.34-.34V9.75a.34.34,0,0,0-.34-.34Zm12,13.31H11.45a1,1,0,0,1-1-1V9.75a1,1,0,0,1,1-1h12a1,1,0,0,1,1,1v12A1,1,0,0,1,23.4,22.72Z"/><path class="cls-10" d="M11.41,9.37a.34.34,0,0,0-.33.34v12a.34.34,0,0,0,.33.34h12a.34.34,0,0,0,.34-.34V9.71a.34.34,0,0,0-.34-.34Zm12,13.31H11.41a1,1,0,0,1-1-1V9.71a1,1,0,0,1,1-1h12a1,1,0,0,1,1,1v12A1,1,0,0,1,23.36,22.68Z"/><path class="cls-11" d="M11.37,9.33a.34.34,0,0,0-.33.34v12a.34.34,0,0,0,.33.34h12a.34.34,0,0,0,.34-.34v-12a.34.34,0,0,0-.34-.34Zm12,13.31h-12a1,1,0,0,1-1-1v-12a1,1,0,0,1,1-1h12a1,1,0,0,1,1,1v12A1,1,0,0,1,23.32,22.64Z"/><path class="cls-12" d="M11.33,9.3a.33.33,0,0,0-.33.33V21.58a.34.34,0,0,0,.33.34h12a.34.34,0,0,0,.34-.34V9.63a.34.34,0,0,0-.34-.33Zm12,13.3h-12a1,1,0,0,1-1-1V9.63a1,1,0,0,1,1-1h12a1,1,0,0,1,1,1V21.58A1,1,0,0,1,23.28,22.6Z"/><path class="cls-13" d="M11.3,9.26a.34.34,0,0,0-.34.33v12a.34.34,0,0,0,.34.34h12a.34.34,0,0,0,.33-.34V9.59a.33.33,0,0,0-.33-.33Zm12,13.3H11.3a1,1,0,0,1-1-1V9.59a1,1,0,0,1,1-1h12a1,1,0,0,1,1,1v12A1,1,0,0,1,23.25,22.56Z"/><path class="cls-14" d="M11.26,9.22a.34.34,0,0,0-.34.34v12a.34.34,0,0,0,.34.33h12a.33.33,0,0,0,.33-.33v-12a.34.34,0,0,0-.33-.34Zm12,13.3h-12a1,1,0,0,1-1-1v-12a1,1,0,0,1,1-1h12a1,1,0,0,1,1,1v12A1,1,0,0,1,23.21,22.52Z"/><path class="cls-15" d="M11.22,9.18a.34.34,0,0,0-.34.34v12a.34.34,0,0,0,.34.34h12a.35.35,0,0,0,.34-.34V9.52a.34.34,0,0,0-.34-.34Zm12,13.3h-12a1,1,0,0,1-1-1V9.52a1,1,0,0,1,1-1h12a1,1,0,0,1,1,1v12A1,1,0,0,1,23.17,22.48Z"/><path class="cls-16" d="M11.18,9.14a.34.34,0,0,0-.34.34v12a.34.34,0,0,0,.34.34h12a.35.35,0,0,0,.34-.34V9.48a.34.34,0,0,0-.34-.34Zm12,13.3H11.18a1,1,0,0,1-1-1V9.48a1,1,0,0,1,1-1h12a1,1,0,0,1,1,1v12A1,1,0,0,1,23.13,22.44Z"/><path class="cls-17" d="M11.14,9.1a.34.34,0,0,0-.34.34v12a.34.34,0,0,0,.34.34h12a.35.35,0,0,0,.34-.34v-12a.34.34,0,0,0-.34-.34Zm12,13.3H11.14a1,1,0,0,1-1-1v-12a1,1,0,0,1,1-1h12a1,1,0,0,1,1,1v12A1,1,0,0,1,23.09,22.4Z"/><path class="cls-18" d="M11.1,9.06a.34.34,0,0,0-.34.34v12a.34.34,0,0,0,.34.34h12a.34.34,0,0,0,.34-.34V9.4a.34.34,0,0,0-.34-.34Zm12,13.3h-12a1,1,0,0,1-1-1V9.4a1,1,0,0,1,1-1h12a1,1,0,0,1,1,1v12A1,1,0,0,1,23.05,22.36Z"/><path class="cls-19" d="M11.06,9a.34.34,0,0,0-.34.34v12a.34.34,0,0,0,.34.34H23a.34.34,0,0,0,.34-.34V9.36A.34.34,0,0,0,23,9Zm12,13.3h-12a1,1,0,0,1-1-1V9.36a1,1,0,0,1,1-1H23a1,1,0,0,1,1,1v12A1,1,0,0,1,23,22.32Z"/><path class="cls-20" d="M11,9a.34.34,0,0,0-.34.34v12a.34.34,0,0,0,.34.34H23a.34.34,0,0,0,.34-.34V9.32A.34.34,0,0,0,23,9ZM23,22.29H11a1,1,0,0,1-1-1V9.32a1,1,0,0,1,1-1H23a1,1,0,0,1,1,1v12A1,1,0,0,1,23,22.29Z"/><path class="cls-21" d="M11,8.94a.34.34,0,0,0-.34.34v12a.34.34,0,0,0,.34.34h12a.34.34,0,0,0,.34-.34v-12a.34.34,0,0,0-.34-.34Zm12,13.31H11a1,1,0,0,1-1-1v-12a1,1,0,0,1,1-1h12a1,1,0,0,1,1,1v12A1,1,0,0,1,22.93,22.25Z"/><path class="cls-22" d="M10.94,8.9a.35.35,0,0,0-.34.34v12a.34.34,0,0,0,.34.34h12a.34.34,0,0,0,.34-.34v-12a.34.34,0,0,0-.34-.34Zm12,13.31h-12a1,1,0,0,1-1-1v-12a1,1,0,0,1,1-1h12a1,1,0,0,1,1,1v12A1,1,0,0,1,22.89,22.21Z"/><path class="cls-23" d="M10.9,8.86a.35.35,0,0,0-.34.34v12a.34.34,0,0,0,.34.34h12a.34.34,0,0,0,.34-.34V9.2a.34.34,0,0,0-.34-.34Zm12,13.31h-12a1,1,0,0,1-1-1V9.2a1,1,0,0,1,1-1h12a1,1,0,0,1,1,1v12A1,1,0,0,1,22.85,22.17Z"/><path class="cls-24" d="M10.86,8.82a.34.34,0,0,0-.33.34v12a.34.34,0,0,0,.33.34h12a.34.34,0,0,0,.34-.34V9.16a.34.34,0,0,0-.34-.34Zm12,13.31H10.86a1,1,0,0,1-1-1V9.16a1,1,0,0,1,1-1h12a1,1,0,0,1,1,1v12A1,1,0,0,1,22.81,22.13Z"/><path class="cls-25" d="M10.82,8.79a.33.33,0,0,0-.33.33v12a.34.34,0,0,0,.33.34h12a.34.34,0,0,0,.34-.34v-12a.34.34,0,0,0-.34-.33Zm12,13.3H10.82a1,1,0,0,1-1-1v-12a1,1,0,0,1,1-1h12a1,1,0,0,1,1,1v12A1,1,0,0,1,22.77,22.09Z"/><path class="cls-26" d="M10.79,8.75a.34.34,0,0,0-.34.33V21a.34.34,0,0,0,.34.34h12a.34.34,0,0,0,.33-.34v-12a.33.33,0,0,0-.33-.33Zm12,13.3H10.79a1,1,0,0,1-1-1v-12a1,1,0,0,1,1-1h12a1,1,0,0,1,1,1V21A1,1,0,0,1,22.74,22.05Z"/><path class="cls-27" d="M10.75,8.71a.34.34,0,0,0-.34.34V21a.34.34,0,0,0,.34.34h12A.34.34,0,0,0,23,21V9.05a.34.34,0,0,0-.33-.34ZM22.7,22H10.75a1,1,0,0,1-1-1V9.05a1,1,0,0,1,1-1h12a1,1,0,0,1,1,1V21A1,1,0,0,1,22.7,22Z"/><path class="cls-28" d="M10.71,8.67a.34.34,0,0,0-.34.34V21a.34.34,0,0,0,.34.33h12A.33.33,0,0,0,23,21V9a.34.34,0,0,0-.33-.34Zm12,13.3H10.71a1,1,0,0,1-1-1V9a1,1,0,0,1,1-1h12a1,1,0,0,1,1,1V21A1,1,0,0,1,22.66,22Z"/><path class="cls-29" d="M10.67,8.63a.34.34,0,0,0-.34.34v12a.34.34,0,0,0,.34.34h12a.35.35,0,0,0,.34-.34V9a.34.34,0,0,0-.34-.34Zm12,13.3h-12a1,1,0,0,1-1-1V9a1,1,0,0,1,1-1h12a1,1,0,0,1,1,1v12A1,1,0,0,1,22.62,21.93Z"/><path class="cls-30" d="M10.63,8.59a.34.34,0,0,0-.34.34v12a.34.34,0,0,0,.34.34H22.58a.35.35,0,0,0,.34-.34V8.93a.34.34,0,0,0-.34-.34Zm11.95,13.3H10.63a1,1,0,0,1-1-1V8.93a1,1,0,0,1,1-1H22.58a1,1,0,0,1,1,1v12A1,1,0,0,1,22.58,21.89Z"/><path class="cls-31" d="M10.59,8.55a.34.34,0,0,0-.34.34v12a.34.34,0,0,0,.34.34h12a.34.34,0,0,0,.34-.34V8.89a.34.34,0,0,0-.34-.34Zm12,13.3H10.59a1,1,0,0,1-1-1V8.89a1,1,0,0,1,1-1h12a1,1,0,0,1,1,1v12A1,1,0,0,1,22.54,21.85Z"/><path class="cls-32" d="M10.55,8.51a.34.34,0,0,0-.34.34v12a.34.34,0,0,0,.34.34h12a.34.34,0,0,0,.34-.34v-12a.34.34,0,0,0-.34-.34Zm12,13.3H10.55a1,1,0,0,1-1-1v-12a1,1,0,0,1,1-1h12a1,1,0,0,1,1,1v12A1,1,0,0,1,22.5,21.81Z"/><path class="cls-33" d="M10.51,8.47a.34.34,0,0,0-.34.34v12a.34.34,0,0,0,.34.34h12a.34.34,0,0,0,.34-.34v-12a.34.34,0,0,0-.34-.34Zm12,13.31h-12a1,1,0,0,1-1-1v-12a1,1,0,0,1,1-1h12a1,1,0,0,1,1,1v12A1,1,0,0,1,22.46,21.78Z"/><path class="cls-34" d="M10.47,8.43a.34.34,0,0,0-.34.34v12a.34.34,0,0,0,.34.34h12a.34.34,0,0,0,.34-.34V8.77a.34.34,0,0,0-.34-.34Zm12,13.31h-12a1,1,0,0,1-1-1V8.77a1,1,0,0,1,1-1h12a1,1,0,0,1,1,1v12A1,1,0,0,1,22.42,21.74Z"/><path class="cls-35" d="M10.43,8.39a.35.35,0,0,0-.34.34v12a.34.34,0,0,0,.34.34h12a.34.34,0,0,0,.34-.34V8.73a.34.34,0,0,0-.34-.34Zm12,13.31H10.43a1,1,0,0,1-1-1V8.73a1,1,0,0,1,1-1h12a1,1,0,0,1,1,1v12A1,1,0,0,1,22.38,21.7Z"/><path class="cls-36" d="M10.39,8.35a.35.35,0,0,0-.34.34v12a.34.34,0,0,0,.34.34h12a.34.34,0,0,0,.34-.34v-12a.34.34,0,0,0-.34-.34Zm12,13.31H10.39a1,1,0,0,1-1-1v-12a1,1,0,0,1,1-1h12a1,1,0,0,1,1,1v12A1,1,0,0,1,22.34,21.66Z"/><path class="cls-37" d="M10.35,8.31a.34.34,0,0,0-.33.34v12a.34.34,0,0,0,.33.34h12a.34.34,0,0,0,.34-.34v-12a.34.34,0,0,0-.34-.34Zm12,13.31h-12a1,1,0,0,1-1-1v-12a1,1,0,0,1,1-1h12a1,1,0,0,1,1,1v12A1,1,0,0,1,22.3,21.62Z"/><path class="cls-38" d="M10.31,8.28a.33.33,0,0,0-.33.33v12a.34.34,0,0,0,.33.34h12a.34.34,0,0,0,.34-.34V8.61a.34.34,0,0,0-.34-.33Zm12,13.3h-12a1,1,0,0,1-1-1V8.61a1,1,0,0,1,1-1h12a1,1,0,0,1,1,1v12A1,1,0,0,1,22.26,21.58Z"/><path class="cls-39" d="M10.28,8.24a.34.34,0,0,0-.34.33v12a.34.34,0,0,0,.34.34h12a.34.34,0,0,0,.33-.34V8.57a.33.33,0,0,0-.33-.33Zm12,13.3h-12a1,1,0,0,1-1-1V8.57a1,1,0,0,1,1-1h12a1,1,0,0,1,1,1v12A1,1,0,0,1,22.23,21.54Z"/><path class="cls-40" d="M10.24,8.2a.34.34,0,0,0-.34.34V20.48a.34.34,0,0,0,.34.34h12a.34.34,0,0,0,.33-.34V8.54a.34.34,0,0,0-.33-.34Zm12,13.3h-12a1,1,0,0,1-1-1V8.54a1,1,0,0,1,1-1h12a1,1,0,0,1,1,1V20.48A1,1,0,0,1,22.19,21.5Z"/><path class="cls-41" d="M10.2,8.16a.34.34,0,0,0-.34.34V20.44a.34.34,0,0,0,.34.34h12a.34.34,0,0,0,.33-.34V8.5a.34.34,0,0,0-.33-.34Zm12,13.3H10.2a1,1,0,0,1-1-1V8.5a1,1,0,0,1,1-1h12a1,1,0,0,1,1,1V20.44A1,1,0,0,1,22.15,21.46Z"/><path class="cls-42" d="M10.16,8.12a.34.34,0,0,0-.34.34v12a.34.34,0,0,0,.34.34h12a.35.35,0,0,0,.34-.34V8.46a.34.34,0,0,0-.34-.34Zm12,13.3H10.16a1,1,0,0,1-1-1V8.46a1,1,0,0,1,1-1h12a1,1,0,0,1,1,1v12A1,1,0,0,1,22.11,21.42Z"/><path class="cls-43" d="M10.12,8.08a.34.34,0,0,0-.34.34v12a.34.34,0,0,0,.34.34h12a.34.34,0,0,0,.34-.34v-12a.34.34,0,0,0-.34-.34Zm12,13.3h-12a1,1,0,0,1-1-1v-12a1,1,0,0,1,1-1h12a1,1,0,0,1,1,1v12A1,1,0,0,1,22.07,21.38Z"/><path class="cls-44" d="M10.08,8a.34.34,0,0,0-.34.34V20.33a.34.34,0,0,0,.34.34H22a.34.34,0,0,0,.34-.34V8.38A.34.34,0,0,0,22,8Zm12,13.3h-12a1,1,0,0,1-1-1V8.38a1,1,0,0,1,1-1H22a1,1,0,0,1,1,1V20.33A1,1,0,0,1,22,21.34Z"/><path class="cls-45" d="M10,8a.34.34,0,0,0-.34.34v12a.34.34,0,0,0,.34.34H22a.34.34,0,0,0,.34-.34V8.34A.34.34,0,0,0,22,8ZM22,21.3H10a1,1,0,0,1-1-1V8.34a1,1,0,0,1,1-1H22a1,1,0,0,1,1,1v12A1,1,0,0,1,22,21.3Z"/><path class="cls-46" d="M10,8a.34.34,0,0,0-.34.34v12a.34.34,0,0,0,.34.34H22a.34.34,0,0,0,.34-.34V8.3A.34.34,0,0,0,22,8Zm12,13.3H10a1,1,0,0,1-1-1V8.3a1,1,0,0,1,1-1H22a1,1,0,0,1,1,1v12A1,1,0,0,1,22,21.26Z"/><path class="cls-47" d="M10,7.92a.34.34,0,0,0-.34.34v12a.34.34,0,0,0,.34.34h12a.34.34,0,0,0,.34-.34v-12a.34.34,0,0,0-.34-.34Zm12,13.31H10a1,1,0,0,1-1-1v-12a1,1,0,0,1,1-1h12a1,1,0,0,1,1,1v12A1,1,0,0,1,21.91,21.23Z"/><path class="cls-48" d="M9.92,7.88a.34.34,0,0,0-.34.34v12a.34.34,0,0,0,.34.34h12a.34.34,0,0,0,.34-.34v-12a.34.34,0,0,0-.34-.34Zm12,13.31h-12a1,1,0,0,1-1-1v-12a1,1,0,0,1,1-1h12a1,1,0,0,1,1,1v12A1,1,0,0,1,21.87,21.19Z"/></g><path class="cls-49" d="M21.87,21.19h-12a1,1,0,0,1-1-1v-12a1,1,0,0,1,1-1h12a1,1,0,0,1,1,1v12A1,1,0,0,1,21.87,21.19ZM9.92,7.88a.34.34,0,0,0-.34.34v12a.34.34,0,0,0,.34.34h12a.34.34,0,0,0,.34-.34v-12a.34.34,0,0,0-.34-.34Z"/><g class="cls-5"><g class="cls-6"><path class="cls-50" d="M14.88,13.57h1V13a3.46,3.46,0,0,1,.19-1.33,1.45,1.45,0,0,1,.7-.71,2.57,2.57,0,0,1,1.29-.28,5.23,5.23,0,0,1,1.56.24l-.26,1.3a3.73,3.73,0,0,0-.86-.1.71.71,0,0,0-.57.19,1,1,0,0,0-.18.73v.49h1.39V15H17.79v5.59H15.92V15h-1Z"/></g><path class="cls-51" d="M14.84,13.53h1V13a3.63,3.63,0,0,1,.19-1.33,1.5,1.5,0,0,1,.7-.71,2.62,2.62,0,0,1,1.29-.28,5.18,5.18,0,0,1,1.56.24l-.25,1.3a3.83,3.83,0,0,0-.86-.11.75.75,0,0,0-.58.2,1,1,0,0,0-.18.72v.5h1.4V15h-1.4v5.59H15.88V15h-1Z"/><path class="cls-52" d="M14.81,13.49h1V13A3.64,3.64,0,0,1,16,11.63a1.52,1.52,0,0,1,.7-.72A2.74,2.74,0,0,1,18,10.64a5.17,5.17,0,0,1,1.56.23l-.25,1.31a3.83,3.83,0,0,0-.86-.11.79.79,0,0,0-.58.19,1.09,1.09,0,0,0-.18.73v.5h1.4V15h-1.4v5.59H15.85V15h-1Z"/><path class="cls-53" d="M14.77,13.44h1v-.53A3.43,3.43,0,0,1,16,11.58a1.5,1.5,0,0,1,.7-.71A2.57,2.57,0,0,1,18,10.59a5.23,5.23,0,0,1,1.56.24l-.26,1.3a3.73,3.73,0,0,0-.86-.1.73.73,0,0,0-.57.19,1.08,1.08,0,0,0-.18.72v.5h1.4v1.47h-1.4V20.5H15.81V14.91h-1Z"/><path class="cls-54" d="M14.73,13.4h1v-.53A3.63,3.63,0,0,1,16,11.54a1.5,1.5,0,0,1,.7-.71A2.62,2.62,0,0,1,18,10.55a5.18,5.18,0,0,1,1.56.24l-.25,1.3A3.83,3.83,0,0,0,18.4,12a.75.75,0,0,0-.58.2,1,1,0,0,0-.18.72v.5H19v1.47h-1.4v5.59H15.77V14.87h-1Z"/><path class="cls-55" d="M14.7,13.35h1v-.52a3.74,3.74,0,0,1,.18-1.34,1.54,1.54,0,0,1,.7-.71,2.74,2.74,0,0,1,1.29-.27,5.13,5.13,0,0,1,1.56.23L19.22,12a3.73,3.73,0,0,0-.86-.1.79.79,0,0,0-.58.19,1.09,1.09,0,0,0-.18.73v.49H19v1.48H17.6v5.58H15.74V14.83h-1Z"/><path class="cls-56" d="M14.66,13.31h1v-.53a3.43,3.43,0,0,1,.19-1.33,1.46,1.46,0,0,1,.7-.71,2.57,2.57,0,0,1,1.29-.28,5.23,5.23,0,0,1,1.56.24L19.18,12a3.74,3.74,0,0,0-.85-.11.74.74,0,0,0-.58.2,1,1,0,0,0-.18.72v.5H19v1.47h-1.4v5.59H15.7V14.78h-1Z"/><path class="cls-57" d="M14.62,13.27h1v-.53a3.6,3.6,0,0,1,.19-1.33,1.46,1.46,0,0,1,.7-.71,2.62,2.62,0,0,1,1.29-.28,5.51,5.51,0,0,1,1.56.23L19.15,12a3.83,3.83,0,0,0-.86-.11.75.75,0,0,0-.58.2,1,1,0,0,0-.18.72v.5h1.4v1.47h-1.4v5.59H15.66V14.74h-1Z"/><path class="cls-58" d="M14.59,13.22h1v-.53a3.71,3.71,0,0,1,.18-1.33,1.54,1.54,0,0,1,.7-.71,2.62,2.62,0,0,1,1.29-.28,5.13,5.13,0,0,1,1.56.24l-.25,1.3a3.73,3.73,0,0,0-.86-.1.79.79,0,0,0-.58.19,1.16,1.16,0,0,0-.17.73v.49h1.39v1.47H17.5v5.59H15.63V14.69h-1Z"/><path class="cls-59" d="M14.55,13.18h1v-.53a3.43,3.43,0,0,1,.19-1.33,1.46,1.46,0,0,1,.7-.71,2.57,2.57,0,0,1,1.29-.28,5.23,5.23,0,0,1,1.56.24l-.25,1.3a3.83,3.83,0,0,0-.86-.11.74.74,0,0,0-.58.2,1,1,0,0,0-.18.72v.5h1.4v1.47h-1.4v5.59H15.59V14.65h-1Z"/><path class="cls-60" d="M14.51,13.14h1v-.53a3.6,3.6,0,0,1,.19-1.33,1.52,1.52,0,0,1,.7-.72,2.74,2.74,0,0,1,1.29-.27,5.17,5.17,0,0,1,1.56.23L19,11.82a4.46,4.46,0,0,0-.86-.1.79.79,0,0,0-.58.19,1.09,1.09,0,0,0-.18.73v.5h1.4v1.47h-1.4V20.2H15.55V14.61h-1Z"/><path class="cls-61" d="M14.48,13.09h1v-.53a3.67,3.67,0,0,1,.18-1.33,1.48,1.48,0,0,1,.71-.71,2.56,2.56,0,0,1,1.28-.28,5.13,5.13,0,0,1,1.56.24L19,11.78a3.76,3.76,0,0,0-.86-.11.75.75,0,0,0-.58.2,1.15,1.15,0,0,0-.17.72v.5h1.39v1.47H17.39v5.59H15.52V14.56h-1Z"/><path class="cls-62" d="M14.44,13.05h1v-.53a3.43,3.43,0,0,1,.19-1.33,1.42,1.42,0,0,1,.7-.71,2.6,2.6,0,0,1,1.29-.28,5.18,5.18,0,0,1,1.56.24L19,11.74a3.83,3.83,0,0,0-.86-.11.74.74,0,0,0-.58.2,1,1,0,0,0-.18.72v.5h1.4v1.47h-1.4v5.59H15.48V14.52h-1Z"/><path class="cls-63" d="M14.4,13h1v-.53a3.67,3.67,0,0,1,.19-1.33,1.54,1.54,0,0,1,.7-.71,2.74,2.74,0,0,1,1.29-.27,5.17,5.17,0,0,1,1.56.23l-.25,1.3a3.79,3.79,0,0,0-.86-.1.79.79,0,0,0-.58.19,1.09,1.09,0,0,0-.18.73V13h1.4v1.48h-1.4v5.58H15.44V14.48h-1Z"/><path class="cls-64" d="M14.37,13h1v-.53a3.67,3.67,0,0,1,.18-1.33,1.48,1.48,0,0,1,.71-.71,2.57,2.57,0,0,1,1.29-.28,5.12,5.12,0,0,1,1.55.24l-.25,1.3a3.76,3.76,0,0,0-.86-.11.75.75,0,0,0-.58.2,1.11,1.11,0,0,0-.17.72V13h1.39v1.47H17.28V20H15.41V14.43h-1Z"/><path class="cls-65" d="M14.33,12.92h1v-.53a3.4,3.4,0,0,1,.19-1.33,1.47,1.47,0,0,1,.7-.72,2.71,2.71,0,0,1,1.29-.27,5.51,5.51,0,0,1,1.56.23l-.25,1.31A3.83,3.83,0,0,0,18,11.5a.77.77,0,0,0-.58.19,1.09,1.09,0,0,0-.18.73v.5h1.4v1.47h-1.4V20H15.37V14.39h-1Z"/><path class="cls-66" d="M14.29,12.87h1v-.53A3.67,3.67,0,0,1,15.52,11a1.54,1.54,0,0,1,.7-.71A2.62,2.62,0,0,1,17.51,10a5.18,5.18,0,0,1,1.56.24l-.25,1.3a3.79,3.79,0,0,0-.86-.1.75.75,0,0,0-.58.19,1.08,1.08,0,0,0-.18.72v.5h1.4v1.47H17.2v5.59H15.33V14.34h-1Z"/><path class="cls-67" d="M14.26,12.83h1V12.3A3.67,3.67,0,0,1,15.48,11a1.48,1.48,0,0,1,.71-.71A2.57,2.57,0,0,1,17.48,10a5.23,5.23,0,0,1,1.56.24l-.26,1.3a3.76,3.76,0,0,0-.86-.11.73.73,0,0,0-.57.2,1,1,0,0,0-.18.72v.5h1.39V14.3H17.17v5.59H15.3V14.3h-1Z"/><path class="cls-68" d="M14.22,12.78h1v-.52a3.6,3.6,0,0,1,.19-1.33,1.47,1.47,0,0,1,.7-.72,2.71,2.71,0,0,1,1.29-.27,5.17,5.17,0,0,1,1.56.23l-.25,1.3a4.46,4.46,0,0,0-.86-.1.79.79,0,0,0-.58.19,1.09,1.09,0,0,0-.18.73v.49h1.4v1.48h-1.4v5.58H15.26V14.26h-1Z"/><path class="cls-69" d="M14.18,12.74h1v-.53a3.63,3.63,0,0,1,.19-1.33,1.5,1.5,0,0,1,.7-.71,2.62,2.62,0,0,1,1.29-.28,5.18,5.18,0,0,1,1.56.24l-.25,1.3a3.83,3.83,0,0,0-.86-.11.75.75,0,0,0-.58.2,1.08,1.08,0,0,0-.18.72v.5h1.4v1.47h-1.4V19.8H15.22V14.21h-1Z"/><path class="cls-70" d="M14.15,12.7h1v-.53a3.67,3.67,0,0,1,.18-1.33,1.48,1.48,0,0,1,.71-.71,2.57,2.57,0,0,1,1.29-.28,5.56,5.56,0,0,1,1.56.23l-.26,1.31a3.76,3.76,0,0,0-.86-.11.73.73,0,0,0-.57.2,1,1,0,0,0-.18.72v.5h1.4v1.47h-1.4v5.59H15.19V14.17h-1Z"/><path class="cls-71" d="M14.11,12.65h1v-.53a3.67,3.67,0,0,1,.19-1.33,1.54,1.54,0,0,1,.7-.71,2.71,2.71,0,0,1,1.29-.28,5.18,5.18,0,0,1,1.56.24l-.25,1.3a3.79,3.79,0,0,0-.86-.1.79.79,0,0,0-.58.19,1.09,1.09,0,0,0-.18.73v.49h1.4v1.48H17v5.58H15.15V14.13h-1Z"/><path class="cls-72" d="M14.08,12.61h1v-.53a3.67,3.67,0,0,1,.18-1.33A1.5,1.5,0,0,1,16,10a2.62,2.62,0,0,1,1.29-.28,5.18,5.18,0,0,1,1.56.24l-.25,1.3a3.83,3.83,0,0,0-.86-.11.75.75,0,0,0-.58.2,1,1,0,0,0-.18.72v.5h1.4v1.47H17v5.59H15.12V14.08h-1Z"/><path class="cls-73" d="M14,12.57h1V12a3.4,3.4,0,0,1,.19-1.33A1.47,1.47,0,0,1,16,10a2.69,2.69,0,0,1,1.29-.27,5.22,5.22,0,0,1,1.56.23l-.26,1.31a3.74,3.74,0,0,0-.85-.11.77.77,0,0,0-.58.19,1.09,1.09,0,0,0-.18.73v.5h1.4V14H17v5.59H15.08V14H14Z"/><path class="cls-74" d="M14,12.52h1V12a3.63,3.63,0,0,1,.19-1.33,1.5,1.5,0,0,1,.7-.71,2.62,2.62,0,0,1,1.29-.28,5.18,5.18,0,0,1,1.56.24l-.25,1.3a3.79,3.79,0,0,0-.86-.1.75.75,0,0,0-.58.19,1.08,1.08,0,0,0-.18.72v.5h1.4V14h-1.4v5.59H15V14H14Z"/><path class="cls-75" d="M14,12.48h1V12a3.67,3.67,0,0,1,.18-1.33,1.46,1.46,0,0,1,.7-.71,2.62,2.62,0,0,1,1.29-.28,5.18,5.18,0,0,1,1.56.24l-.25,1.3a3.83,3.83,0,0,0-.86-.11.75.75,0,0,0-.58.2,1,1,0,0,0-.17.72v.5h1.39V14H16.88v5.59H15V14H14Z"/><path class="cls-76" d="M13.93,12.43h1v-.52a3.4,3.4,0,0,1,.19-1.33,1.47,1.47,0,0,1,.7-.72,2.69,2.69,0,0,1,1.29-.27,5.22,5.22,0,0,1,1.56.23l-.26,1.3a3.64,3.64,0,0,0-.85-.1.77.77,0,0,0-.58.19,1.09,1.09,0,0,0-.18.73v.49h1.4v1.48h-1.4v5.58H15V13.91h-1Z"/><path class="cls-77" d="M13.89,12.39h1v-.53a3.63,3.63,0,0,1,.19-1.33,1.5,1.5,0,0,1,.7-.71,2.62,2.62,0,0,1,1.29-.28,5.18,5.18,0,0,1,1.56.24l-.25,1.3a3.83,3.83,0,0,0-.86-.11.75.75,0,0,0-.58.2,1,1,0,0,0-.18.72v.5h1.4v1.47H16.8v5.59H14.93V13.86h-1Z"/><path class="cls-78" d="M13.86,12.35h1v-.53a3.64,3.64,0,0,1,.18-1.33,1.5,1.5,0,0,1,.71-.72,2.67,2.67,0,0,1,1.28-.27,5.51,5.51,0,0,1,1.56.23L18.38,11a3.83,3.83,0,0,0-.86-.11.75.75,0,0,0-.58.2,1,1,0,0,0-.17.72v.5h1.39v1.47H16.77v5.59H14.9V13.82h-1Z"/><path class="cls-79" d="M13.82,12.3h1v-.53a3.46,3.46,0,0,1,.19-1.33,1.5,1.5,0,0,1,.7-.71A2.68,2.68,0,0,1,17,9.45a5.18,5.18,0,0,1,1.56.24L18.34,11a3.64,3.64,0,0,0-.85-.1.74.74,0,0,0-.58.19,1.09,1.09,0,0,0-.18.73v.49h1.4v1.47h-1.4v5.59H14.86V13.77h-1Z"/><path class="cls-80" d="M13.78,12.26h1v-.53A3.63,3.63,0,0,1,15,10.4a1.5,1.5,0,0,1,.7-.71A2.62,2.62,0,0,1,17,9.41a5.18,5.18,0,0,1,1.56.24L18.31,11a3.83,3.83,0,0,0-.86-.11.75.75,0,0,0-.58.2,1,1,0,0,0-.18.72v.5h1.4v1.47h-1.4v5.59H14.82V13.73h-1Z"/><path class="cls-81" d="M13.75,12.22h1v-.53A3.64,3.64,0,0,1,15,10.36a1.5,1.5,0,0,1,.71-.72A2.67,2.67,0,0,1,17,9.37a5.17,5.17,0,0,1,1.56.23l-.25,1.31a3.83,3.83,0,0,0-.86-.11.75.75,0,0,0-.58.19,1.1,1.1,0,0,0-.17.73v.5h1.39v1.47H16.66v5.59H14.79V13.69h-1Z"/></g><path class="cls-82" d="M13.75,12.22h1v-.53A3.64,3.64,0,0,1,15,10.36a1.5,1.5,0,0,1,.71-.72A2.67,2.67,0,0,1,17,9.37a5.17,5.17,0,0,1,1.56.23l-.25,1.31a3.83,3.83,0,0,0-.86-.11.75.75,0,0,0-.58.19,1.1,1.1,0,0,0-.17.73v.5h1.39v1.47H16.66v5.59H14.79V13.69h-1Z"/></g></g></svg>